# xmcd CD database file
#
# Track frame offsets:
#	150
#	18371
#	38243
#	54766
#	73963
#	92917
#	111435
#	132505
#	152850
#	169363
#	192522
#
# Disc length: 3498 seconds
#
# Revision: 5
# Processed by: cddbd v1.4PL0 Copyright (c) Steve Scherf et al.
# Submitted via: CDex 1.50Beta7
#
DISCID=a00da80b
DTITLE=Max Gazzè - Max Gazzè
DYEAR=1900
DGENRE=Blues
TTITLE0=Poeta minore
TTITLE1=Su un ciliegio esterno
TTITLE2=Il timido ubriaco
TTITLE3=A
TTITLE4=Se piove
TTITLE5=L'uomo più furbo
TTITLE6=Del tutto personale
TTITLE7=Preferisco così
TTITLE8=Elemosina
TTITLE9=La tua realta
TTITLE10=Adesso stop
EXTD=
EXTT0=
EXTT1=
EXTT2=
EXTT3=
EXTT4=
EXTT5=
EXTT6=
EXTT7=
EXTT8=
EXTT9=
EXTT10=
PLAYORDER=
